HIERARCHY
ROOT Hips
{
	OFFSET 0.000000 0.000000 0.000000
	CHANNELS 6 Xposition Yposition Zposition Xrotation Yrotation Zrotation
	JOINT LeftUpLeg_virtual
	{
		OFFSET 0.000000 0.000000 0.000000
		CHANNELS 3 Xrotation Yrotation Zrotation
		JOINT LeftUpLeg
		{
			OFFSET 13.026900 -6.336304 -1.092800
			CHANNELS 3 Xrotation Yrotation Zrotation
			JOINT LeftLeg
			{
				OFFSET 0.524474 -46.096886 9.782700
				CHANNELS 3 Xrotation Yrotation Zrotation
				JOINT LeftFoot
				{
					OFFSET -0.524474 -53.427422 -12.948200
					CHANNELS 3 Xrotation Yrotation Zrotation
					JOINT LeftToeBase
					{
						OFFSET 0.192200 -14.009700 16.364100
						CHANNELS 3 Xrotation Yrotation Zrotation
						JOINT LeftToe_End
						{
							OFFSET -1.784700 -0.561700 9.474800
							CHANNELS 3 Xrotation Yrotation Zrotation
							End Site
							{
								OFFSET 0 0 0
							}
						}
					}
				}
			}
		}
	}
	JOINT RightUpLeg_virtual
	{
		OFFSET 0.000000 0.000000 0.000000
		CHANNELS 3 Xrotation Yrotation Zrotation
		JOINT RightUpLeg
		{
			OFFSET -12.883000 -6.336304 -1.092800
			CHANNELS 3 Xrotation Yrotation Zrotation
			JOINT RightLeg
			{
				OFFSET -0.524587 -46.096825 9.782800
				CHANNELS 3 Xrotation Yrotation Zrotation
				JOINT RightFoot
				{
					OFFSET 0.524587 -53.427383 -12.948300
					CHANNELS 3 Xrotation Yrotation Zrotation
					JOINT RightToeBase
					{
						OFFSET -0.192200 -14.009700 16.364100
						CHANNELS 3 Xrotation Yrotation Zrotation
						JOINT RightToe_End
						{
							OFFSET 1.784700 -0.561700 9.474800
							CHANNELS 3 Xrotation Yrotation Zrotation
							End Site
							{
								OFFSET 0 0 0
							}
						}
					}
				}
			}
		}
	}
	JOINT Spine_virtual
	{
		OFFSET 0.000000 0.000000 0.000000
		CHANNELS 3 Xrotation Yrotation Zrotation
		JOINT Spine
		{
			OFFSET 0.072000 7.257294 -0.789700
			CHANNELS 3 Xrotation Yrotation Zrotation
			JOINT Spine1
			{
				OFFSET 0.000000 12.508769 -0.658067
				CHANNELS 3 Xrotation Yrotation Zrotation
				JOINT Spine1_split
				{
					OFFSET 0.000000 12.508769 -0.658067
					CHANNELS 3 Xrotation Yrotation Zrotation
					JOINT Spine2
					{
						OFFSET 0.000000 12.508769 -0.658067
						CHANNELS 3 Xrotation Yrotation Zrotation
						JOINT Neck_virtual
						{
							OFFSET 0.000000 0.000000 0.000000
							CHANNELS 3 Xrotation Yrotation Zrotation
							JOINT Neck
							{
								OFFSET 0.000000 14.033295 7.520400
								CHANNELS 3 Xrotation Yrotation Zrotation
								JOINT Head
								{
									OFFSET 0.000000 8.198502 5.703100
									CHANNELS 3 Xrotation Yrotation Zrotation
									JOINT HeadTop_End
									{
										OFFSET 0.000000 17.760803 13.332701
										CHANNELS 3 Xrotation Yrotation Zrotation
										End Site
										{
											OFFSET 0 0 0
										}
									}
								}
							}
						}
						JOINT LeftShoulder_virtual
						{
							OFFSET 0.000000 0.000000 0.000000
							CHANNELS 3 Xrotation Yrotation Zrotation
							JOINT LeftShoulder
							{
								OFFSET 6.292450 5.785301 -0.669000
								CHANNELS 3 Xrotation Yrotation Zrotation
								JOINT LeftShoulder_split
								{
									OFFSET 6.292450 5.785301 -0.669000
									CHANNELS 3 Xrotation Yrotation Zrotation
									JOINT LeftArm
									{
										OFFSET 13.907140 -6.093903 1.965100
										CHANNELS 3 Xrotation Yrotation Zrotation
										JOINT LeftForeArm
										{
											OFFSET 34.140198 0.000000 0.000000
											CHANNELS 3 Xrotation Yrotation Zrotation
											JOINT LeftHand
											{
												OFFSET 40.960209 0.000000 0.000000
												CHANNELS 3 Xrotation Yrotation Zrotation
												End Site
												{
													OFFSET 0 0 0
												}
											}
										}
									}
								}
							}
						}
						JOINT RightShoulder_virtual
						{
							OFFSET 0.000000 0.000000 0.000000
							CHANNELS 3 Xrotation Yrotation Zrotation
							JOINT RightShoulder
							{
								OFFSET -6.292450 5.785301 -0.669000
								CHANNELS 3 Xrotation Yrotation Zrotation
								JOINT RightShoulder_split
								{
									OFFSET -6.292450 5.785301 -0.669000
									CHANNELS 3 Xrotation Yrotation Zrotation
									JOINT RightArm
									{
										OFFSET -13.907140 -6.093903 1.965100
										CHANNELS 3 Xrotation Yrotation Zrotation
										JOINT RightForeArm
										{
											OFFSET -34.140198 0.000000 0.000000
											CHANNELS 3 Xrotation Yrotation Zrotation
											JOINT RightHand
											{
												OFFSET -40.960209 0.000000 0.000000
												CHANNELS 3 Xrotation Yrotation Zrotation
												End Site
												{
													OFFSET 0 0 0
												}
											}
										}
									}
								}
							}
						}
					}
				}
			}
		}
	}
}
MOTION
Frames: 5
Frame Time: 0.03333333
1.789689 104.044556 1.101822 0.000000 0.000000 0.000000 7.661052 -67.531269 9.152125 -33.185287 12.352630 22.401521 33.157621 -5.527455 -0.171351 -5.334567 -3.382388 -14.344975 0.582135 0.091641 0.460703 0.000000 0.000000 0.000000 5.078073 -66.377404 7.430349 -23.116552 -12.086175 -27.329890 23.378472 -3.668840 -3.375831 -0.046029 -1.916430 19.582087 -4.833379 0.058881 0.224084 0.000000 0.000000 0.000000 2.178866 -64.570081 4.754791 16.442442 0.622552 -3.872164 4.490408 0.867224 -2.648635 0.471418 2.586986 0.498940 0.000000 0.000000 0.000000 4.032734 0.571234 -2.622200 -4.976859 2.956157 2.876258 -14.964449 52.519490 -3.741265 0.000000 0.000000 0.000000 4.680309 0.211864 -2.709148 2.635405 -3.291836 -11.262546 -3.158774 -5.883735 1.675362 -37.802621 28.544218 -33.177193 3.164075 -43.032019 4.459943 0.000000 0.000000 0.000000 5.287637 0.691981 -2.403448 1.854197 5.845529 9.304097 4.400820 4.772846 0.601365 4.826748 -9.539816 55.199629 -20.481985 35.224310 13.494938 0.000000 0.000000 0.000000 
1.209486 104.678505 3.369102 0.000000 0.000000 0.000000 6.965330 -68.067930 8.508642 -33.367315 13.116889 22.474715 33.530953 -5.358146 0.006627 -5.084473 -2.964590 -14.557872 0.249443 0.021140 0.677350 0.000000 0.000000 0.000000 6.274857 -67.488382 8.113814 -22.656482 -11.415704 -27.193544 24.142241 -3.984534 -3.292784 1.017189 -2.320039 19.040795 -4.714478 -0.140933 0.614216 0.000000 0.000000 0.000000 3.134430 -65.075051 5.251846 16.293362 0.445766 -3.801992 4.433324 0.723267 -2.577010 0.299648 2.578308 0.461840 0.000000 0.000000 0.000000 3.743796 0.486337 -2.577231 -5.204435 3.098418 2.447429 -14.124774 52.420117 -4.360330 0.000000 0.000000 0.000000 4.582515 0.067851 -2.672363 2.679494 -3.760855 -10.919322 -3.449436 -5.790793 1.899949 -38.700668 28.662722 -32.605872 3.074110 -44.053293 4.583991 0.000000 0.000000 0.000000 5.223961 0.651451 -2.360528 1.831495 6.395297 9.671216 3.813517 4.015026 0.242132 3.649944 -9.694571 54.672492 -19.986809 33.775292 12.983423 0.000000 0.000000 0.000000 
0.513631 105.277390 6.234512 0.000000 0.000000 0.000000 6.659407 -68.830856 8.139443 -33.220326 14.009848 22.358971 34.227792 -4.943991 0.050472 -5.578887 -2.153327 -13.912341 -0.369853 -0.044462 0.922025 0.000000 0.000000 0.000000 7.708976 -68.627275 8.995104 -22.656683 -9.768666 -27.023225 26.223147 -4.352314 -2.938293 1.427611 -3.396321 18.498934 -4.821331 -0.260297 0.930637 0.000000 0.000000 0.000000 4.591729 -65.655883 6.146020 16.028670 0.250634 -3.667504 4.164398 0.338299 -2.421458 0.266393 2.508411 0.336499 0.000000 0.000000 0.000000 3.262100 0.111244 -2.397632 -5.234928 3.698132 1.932287 -13.256175 52.393729 -5.084944 0.000000 0.000000 0.000000 4.252784 -0.341378 -2.519568 2.714139 -4.236971 -10.700467 -3.631596 -5.327279 1.947638 -40.204136 28.492850 -31.636839 4.355128 -43.899009 5.693558 0.000000 0.000000 0.000000 4.875201 0.322353 -2.205930 1.883773 7.020377 10.061179 3.283335 3.363023 -0.003341 1.465459 -9.745719 53.843115 -18.917233 30.789229 11.869306 0.000000 0.000000 0.000000 
-0.201830 105.431885 9.208290 0.000000 0.000000 0.000000 6.938083 -69.562854 8.217100 -33.093103 14.799302 22.128090 35.492897 -4.434399 -0.017115 -6.841116 -1.179819 -12.524071 -0.875081 -0.094175 1.079833 0.000000 0.000000 0.000000 9.438775 -69.448489 10.183290 -23.406126 -7.501079 -26.695718 28.783305 -4.570556 -2.375731 0.882004 -4.702155 18.142765 -4.789581 -0.233095 1.003135 0.000000 0.000000 0.000000 6.249707 -66.076937 7.243275 15.739211 0.016935 -3.492746 3.748830 -0.241386 -2.196448 0.330799 2.305240 0.289219 0.000000 0.000000 0.000000 2.700492 -0.495788 -2.115306 -5.058321 4.649635 1.397023 -12.610611 52.337260 -5.670171 0.000000 0.000000 0.000000 3.762855 -0.955128 -2.271262 2.742198 -4.693908 -10.639399 -3.842771 -4.617587 1.925575 -41.893225 27.928807 -30.621640 6.610828 -42.535888 7.477064 0.000000 0.000000 0.000000 4.343036 -0.257705 -1.976011 2.030133 7.567278 10.450238 2.937250 2.979895 -0.143065 -1.139414 -9.409265 53.079862 -17.658001 27.451145 10.592640 0.000000 0.000000 0.000000 
-0.790167 104.975075 11.725166 0.000000 0.000000 0.000000 7.971720 -69.967911 8.929586 -33.571917 15.265024 21.897327 37.489102 -4.079333 -0.123889 -8.647121 -0.374450 -10.822419 -1.041769 -0.124410 1.118219 0.000000 0.000000 0.000000 11.341448 -69.644762 11.555528 -25.060488 -5.163739 -26.079641 31.438005 -4.577036 -1.672001 -0.846041 -5.887267 17.972306 -4.167251 -0.042618 0.781164 0.000000 0.000000 0.000000 8.271948 -66.328944 8.629829 15.434757 -0.260263 -3.278854 3.287766 -0.925689 -1.942808 0.410856 1.823920 0.325699 0.000000 0.000000 0.000000 2.170442 -1.229902 -1.795357 -4.790078 5.803589 0.850566 -12.535328 52.057639 -5.819818 0.000000 0.000000 0.000000 3.230103 -1.664345 -1.980934 2.758844 -5.099128 -10.621163 -4.024491 -3.943729 1.813932 -43.472201 26.735625 -29.801437 9.281215 -40.469776 9.530009 0.000000 0.000000 0.000000 3.751099 -0.990324 -1.721706 2.256346 7.891175 10.804676 2.681093 2.790823 -0.260013 -3.485789 -8.653058 52.675857 -16.443320 24.789157 9.411575 0.000000 0.000000 0.000000 
